<svg xmlns="http://www.w3.org/2000/svg" xml:space="preserve" style="fill-rule:evenodd;clip-rule:evenodd;stroke-linejoin:round;stroke-miterlimit:2" viewBox="0 0 100 37"><path d="M31.557 21.594H.001v2.044h30.736c.318-.657.59-1.341.82-2.044M30.91 9.877.001 9.87v2.044h31.671c-.207-.7-.464-1.379-.762-2.037M32.107 13.778H0v2.044h32.333a16 16 0 0 0-.226-2.044M16.463.308V.299H.001v7.709l29.915.006C27.11 3.489 22.15.44 16.463.308M32.309 17.686H0v2.044h32.042c.133-.666.219-1.35.267-2.044M.001 32.843h16.332v-.007c5.582-.084 10.48-2.981 13.346-7.334H.001zM84.112.308V.299H68.1v7.715l22.018-.006V9.87L68.1 9.878v2.037h24.387v1.863H68.1v1.941l26.453-.016v1.862l-26.453.018v2.149l24.369.025v1.862L68.1 21.594v2.044h22.146v1.863H68.1v11.202h12.45v-3.86h3.434v-.006C92.851 32.699 100 25.473 100 16.571 100 7.713 92.92.514 84.112.308M50.169 9.909l.016.026h-.031zL44.27.297H33.375v7.717h1.848v1.864h-1.848v2.036h4.164v1.865h-4.164v2.044h6.568v1.862h-6.568v2.046h8.962v1.862h-8.962v2.046h11.238v1.862H33.375v7.347h33.588V.297H56.067z" style="fill:#fff;fill-rule:nonzero"/><path d="m50.184 9.935-.016-.026-.015.026zM97.107 30.378h.262c.305 0 .552-.101.552-.348 0-.219-.161-.364-.51-.364-.145 0-.245.014-.304.029zm-.015 1.337h-.553v-2.384c.219-.029.524-.071.916-.071.452 0 .654.071.814.187a.6.6 0 0 1 .248.509c0 .292-.218.479-.494.568v.028c.232.073.348.262.421.583.073.362.132.494.174.58h-.58c-.074-.086-.117-.29-.19-.58-.043-.248-.188-.364-.495-.364h-.261zm-1.469-1.236c0 1.062.8 1.907 1.862 1.907 1.032.012 1.816-.845 1.816-1.892 0-1.062-.784-1.919-1.846-1.919-1.032 0-1.832.857-1.832 1.904m4.289 0c0 1.34-1.075 2.401-2.442 2.401-1.366 0-2.457-1.061-2.457-2.401 0-1.337 1.091-2.384 2.472-2.384 1.352 0 2.427 1.047 2.427 2.384" style="fill:#fff;fill-rule:nonzero"/></svg>